<?xml version="1.0" encoding="UTF-8"?>
<svg version="1.1" xmlns="http://www.w3.org/2000/svg" width="332" height="317">
<path d="M0 0 C8.10068272 -0.06783278 16.20125634 -0.11575165 24.30218506 -0.14102173 C26.95364397 -0.1498648 29.6050953 -0.16139618 32.25653076 -0.17562866 C35.9879221 -0.19334671 39.71907231 -0.19739325 43.45050049 -0.19726562 C45.1317527 -0.20796082 45.1317527 -0.20796082 46.8469696 -0.21887207 C48.39324791 -0.21434021 48.39324791 -0.21434021 49.97076416 -0.2097168 C50.86824875 -0.21114182 51.76573334 -0.21256683 52.69041443 -0.21403503 C55.25248908 0.04939259 56.88802065 0.73924581 59.09503174 2.03320312 C59.12404568 5.47068542 59.14183509 8.90813625 59.15753174 12.34570312 C59.16591064 13.32216797 59.17428955 14.29863281 59.18292236 15.3046875 C59.18614502 16.24248047 59.18936768 17.18027344 59.19268799 18.14648438 C59.1979248 19.01055908 59.20316162 19.87463379 59.20855713 20.76489258 C59.09503174 23.03320312 59.09503174 23.03320312 58.09503174 26.03320312 C56.56193359 26.04200249 56.56193359 26.04200249 54.99786377 26.05097961 C45.34641226 26.10829521 35.69518415 26.18110291 26.04396057 26.26891804 C21.08264809 26.31356675 16.12141668 26.35283499 11.15997314 26.37963867 C6.36819844 26.40572651 1.57673664 26.44616763 -3.21484375 26.49638939 C-5.03914485 26.51302108 -6.86350003 26.52455832 -8.68786621 26.53081703 C-11.25144942 26.54049851 -13.81423874 26.56860526 -16.37762451 26.60083008 C-17.49864815 26.59867744 -17.49864815 26.59867744 -18.64231873 26.59648132 C-24.60416173 26.70185686 -29.9625712 27.95421215 -34.92840576 31.46289062 C-35.37442139 31.93984375 -35.82043701 32.41679687 -36.27996826 32.90820312 C-36.74145264 33.38 -37.20293701 33.85179687 -37.67840576 34.33789062 C-42.12680515 40.48631526 -41.56827417 47.78597194 -40.90496826 55.03320312 C-39.37304789 60.44046802 -36.6859211 64.00137937 -31.90496826 67.03320312 C-25.1362188 70.3277272 -16.15540272 70.43076446 -9.02996826 68.08789062 C-4.7646108 65.85699643 -1.74215227 63.62616316 0.09503174 59.03320312 C1.49610202 53.58232386 1.43211042 47.95876406 1.61260986 42.36328125 C1.8793274 36.24890746 1.8793274 36.24890746 4.09503174 34.03320312 C6.30987549 33.7902832 6.30987549 33.7902832 9.03253174 33.80273438 C10.4981958 33.80563477 10.4981958 33.80563477 11.99346924 33.80859375 C13.01698486 33.82083984 14.04050049 33.83308594 15.09503174 33.84570312 C16.11854736 33.84634766 17.14206299 33.84699219 18.19659424 33.84765625 C25.81438671 33.89288061 25.81438671 33.89288061 28.09503174 35.03320312 C28.16961853 40.84982553 28.22383935 46.66616476 28.25982666 52.4831543 C28.27484129 54.45878962 28.29525925 56.43439202 28.3213501 58.40991211 C28.35805746 61.26229008 28.37483167 64.11422442 28.38800049 66.96679688 C28.40348434 67.83904404 28.4189682 68.7112912 28.43492126 69.60997009 C28.43684623 76.74761011 27.40726724 83.22102481 22.78253174 88.84570312 C21.45221924 89.92851562 21.45221924 89.92851562 20.09503174 91.03320312 C19.20815674 91.77570313 18.32128174 92.51820313 17.40753174 93.28320312 C9.87012262 97.26523058 0.11218355 96.19262242 -8.22918701 96.20117188 C-9.3748262 96.20450027 -10.52046539 96.20782867 -11.70082092 96.21125793 C-14.10683799 96.21629159 -16.51286195 96.21866737 -18.91888428 96.21850586 C-22.59209605 96.2207029 -26.26501218 96.23892547 -29.93817139 96.2578125 C-32.28517558 96.26074509 -34.63218118 96.26273079 -36.97918701 96.26367188 C-38.07099777 96.27085739 -39.16280853 96.27804291 -40.28770447 96.28544617 C-49.34476277 96.25834768 -55.38382414 95.2938491 -62.17449951 88.96289062 C-68.73810388 81.64365686 -68.06340442 71.62497664 -68.07293701 62.38867188 C-68.07626541 61.26431229 -68.07959381 60.1399527 -68.08302307 58.98152161 C-68.08807608 56.60706998 -68.0904319 54.23261129 -68.090271 51.8581543 C-68.09245427 48.24385752 -68.11061881 44.62986771 -68.12957764 41.015625 C-68.13251261 38.702475 -68.13449671 36.38932355 -68.13543701 34.07617188 C-68.14262253 33.00400925 -68.14980804 31.93184662 -68.1572113 30.82719421 C-68.13242842 22.60256086 -68.09135782 14.45907483 -62.21746826 8.15820312 C-61.57422607 7.43890625 -60.93098389 6.71960938 -60.26824951 5.97851562 C-54.59347448 1.30737849 -49.10192295 0.57789868 -42.01434326 0.52148438 C-41.14040421 0.50339722 -40.26646515 0.48531006 -39.36604309 0.4666748 C-36.46238931 0.41131071 -33.55896652 0.37775348 -30.65496826 0.34570312 C-28.6076772 0.31398085 -26.56039535 0.28165938 -24.51312256 0.2487793 C-16.34237829 0.12825857 -8.17129359 0.06947879 0 0 Z " fill="#2B5E58" transform="translate(89.90496826171875,210.966796875)"/>
<path d="M0 0 C1.29672638 -0.00761353 2.59345276 -0.01522705 3.92947388 -0.02307129 C6.66449669 -0.03645532 9.39923113 -0.03811271 12.13427734 -0.03222656 C15.61321134 -0.02633729 19.09074644 -0.05691526 22.56941032 -0.09734344 C25.92131404 -0.12964036 29.27294175 -0.12510398 32.625 -0.125 C33.86071747 -0.14139526 35.09643494 -0.15779053 36.36959839 -0.17468262 C44.23778717 -0.11235285 49.76465933 1.25660411 56.4453125 5.46875 C56.4453125 6.12875 56.4453125 6.78875 56.4453125 7.46875 C57.4353125 7.79875 58.4253125 8.12875 59.4453125 8.46875 C67.08496246 19.32232166 64.63168882 36.70772647 64.63061523 49.32666016 C64.63281879 52.22703372 64.65108871 55.12703623 64.66992188 58.02734375 C64.6728539 59.89843622 64.67483997 61.76953047 64.67578125 63.640625 C64.68296677 64.49396423 64.69015228 65.34730347 64.69755554 66.22650146 C64.66652613 74.47900427 63.81543481 81.90526717 58.4453125 88.46875 C53.693654 93.1811386 49.14429064 95.68264663 42.40917969 95.78759766 C41.42914978 95.80746735 40.44911987 95.82733704 39.43939209 95.84780884 C38.38431458 95.85936005 37.32923706 95.87091125 36.2421875 95.8828125 C35.1321637 95.90217865 34.02213989 95.9215448 32.878479 95.9414978 C29.3175019 96.00115968 25.75648511 96.04740696 22.1953125 96.09375 C19.87628829 96.13198458 17.55727744 96.17103938 15.23828125 96.2109375 C-5.69384724 96.5533121 -26.62892269 96.74584034 -47.5546875 96.03125 C-48.9257746 95.99130751 -50.29686841 95.95159472 -51.66796875 95.91210938 C-52.95058594 95.87021484 -54.23320312 95.82832031 -55.5546875 95.78515625 C-56.6890625 95.74849854 -57.8234375 95.71184082 -58.9921875 95.67407227 C-61.5546875 95.46875 -61.5546875 95.46875 -62.5546875 94.46875 C-62.65400903 92.77316274 -62.68548757 91.07349253 -62.6875 89.375 C-62.68943359 87.83005859 -62.68943359 87.83005859 -62.69140625 86.25390625 C-62.68753906 85.16980469 -62.68367187 84.08570312 -62.6796875 82.96875 C-62.68355469 81.88464844 -62.68742188 80.80054687 -62.69140625 79.68359375 C-62.69011719 78.65363281 -62.68882812 77.62367187 -62.6875 76.5625 C-62.68637207 75.61052734 -62.68524414 74.65855469 -62.68408203 73.67773438 C-62.5546875 71.46875 -62.5546875 71.46875 -61.5546875 70.46875 C-58.68821356 70.2097808 -55.8501405 70.0263911 -52.9765625 69.89453125 C-52.05462097 69.8514534 -51.13267944 69.80837555 -50.18280029 69.76399231 C-41.87182858 69.4286814 -33.57403138 69.44206772 -25.2578125 69.51171875 C-23.90816262 69.52200769 -22.55851256 69.53227161 -21.2088623 69.54251099 C-15.66215989 69.5871433 -10.11565954 69.63590046 -4.56933594 69.71557617 C-1.79235825 69.75487109 0.98432956 69.78328777 3.76153564 69.79988098 C6.34497987 69.8156762 8.92839316 69.84689889 11.51141357 69.89628601 C19.18465929 69.91937994 26.02824542 69.32072923 32.02435303 64.09172058 C37.15305503 58.436311 37.86083258 52.55391352 37.69140625 45.21875 C37.1790576 39.4934571 35.74047277 35.82415028 31.7578125 31.65625 C25.69302509 27.65120171 19.84373981 25.40193558 12.4453125 26.46875 C9.37134106 27.29481724 6.41819905 28.33705946 3.4453125 29.46875 C1.9603125 29.96375 1.9603125 29.96375 0.4453125 30.46875 C-0.65637734 32.16644234 -0.65637734 32.16644234 -1.5546875 34.46875 C-2.05742187 35.4690625 -2.56015625 36.469375 -3.078125 37.5 C-5.02271773 42.03305122 -5.07533415 46.46895776 -5.1796875 51.34375 C-5.23045685 53.04960028 -5.28493649 54.75534561 -5.34375 56.4609375 C-5.37009521 57.58024658 -5.37009521 57.58024658 -5.39697266 58.72216797 C-5.5546875 60.46875 -5.5546875 60.46875 -6.5546875 61.46875 C-8.40838361 61.55612645 -10.26536291 61.57573153 -12.12109375 61.56640625 C-13.24580078 61.56318359 -14.37050781 61.55996094 -15.52929688 61.55664062 C-16.71330078 61.54826172 -17.89730469 61.53988281 -19.1171875 61.53125 C-20.30505859 61.52673828 -21.49292969 61.52222656 -22.71679688 61.51757812 C-25.66280976 61.50574675 -28.60872431 61.48926287 -31.5546875 61.46875 C-31.6565604 55.20668519 -31.72635031 48.94483608 -31.77441406 42.68212891 C-31.79446218 40.55411798 -31.82170804 38.42616168 -31.85644531 36.29833984 C-31.90526298 33.23000567 -31.92772476 30.16240327 -31.9453125 27.09375 C-31.96595764 26.15072021 -31.98660278 25.20769043 -32.00787354 24.23608398 C-32.01046373 16.51729477 -30.24034521 11.21544539 -24.8046875 5.65625 C-16.71956874 0.21434314 -9.51468176 0.00154578 0 0 Z " fill="#2B5E58" transform="translate(257.5546875,4.53125)"/>
<path d="M0 0 C10.65337121 8.30930622 17.56248174 17.5043492 20 31 C20.67844844 37.72945896 20.49237779 44.51166724 20.42578125 51.265625 C20.42084828 53.19520733 20.41755532 55.12479447 20.41581726 57.05438232 C20.40822834 61.06847786 20.38781073 65.08221026 20.35668945 69.09619141 C20.31679617 74.25124395 20.29902369 79.4060631 20.28938007 84.56125259 C20.27944331 89.48357509 20.25956174 94.40584039 20.23828125 99.328125 C20.23318763 100.73959179 20.23318763 100.73959179 20.2279911 102.17957306 C20.21647907 104.82193447 20.1979763 107.46414418 20.17700195 110.10644531 C20.17431305 110.8959407 20.17162415 111.6854361 20.16885376 112.49885559 C20.11492285 117.88507715 20.11492285 117.88507715 19 119 C17.21928754 119.08726223 15.4351686 119.10699041 13.65234375 119.09765625 C12.57275391 119.09443359 11.49316406 119.09121094 10.38085938 119.08789062 C9.24455078 119.07951172 8.10824219 119.07113281 6.9375 119.0625 C5.79732422 119.05798828 4.65714844 119.05347656 3.48242188 119.04882812 C0.65489649 119.03699747 -2.1725264 119.0205141 -5 119 C-6.7724058 114.41259191 -7.25903359 110.57488688 -7.28710938 105.66870117 C-7.29394241 104.96051743 -7.30077545 104.25233368 -7.30781555 103.52268982 C-7.32134169 101.99389472 -7.33043455 100.46505518 -7.33552551 98.93620872 C-7.34386556 96.50934288 -7.36441866 94.08284424 -7.38806152 91.65608215 C-7.43614537 86.49994316 -7.46914715 81.3437671 -7.5 76.1875 C-7.53579413 70.21879386 -7.57792571 64.25026757 -7.63594055 58.28173256 C-7.6558448 55.90387603 -7.66429578 53.52616112 -7.67224121 51.14823914 C-7.48736097 36.65658372 -7.48736097 36.65658372 -14.3046875 24.44140625 C-18.90527713 20.52984502 -23.84853977 19.42776088 -29.7265625 19.6484375 C-34.86236257 20.44263339 -38.69010637 22.72457725 -42.375 26.3125 C-46.55434111 33.22448721 -46.36627709 40.57764143 -46.56640625 48.41210938 C-46.61087891 49.6409082 -46.61087891 49.6409082 -46.65625 50.89453125 C-46.67494141 51.63550049 -46.69363281 52.37646973 -46.71289062 53.13989258 C-47 55 -47 55 -49 57 C-51.43017578 57.22705078 -51.43017578 57.22705078 -54.4453125 57.1953125 C-55.52167969 57.18886719 -56.59804687 57.18242188 -57.70703125 57.17578125 C-58.83496094 57.15902344 -59.96289062 57.14226562 -61.125 57.125 C-62.82849609 57.11146484 -62.82849609 57.11146484 -64.56640625 57.09765625 C-67.37781299 57.07403098 -70.18880298 57.04109013 -73 57 C-75.46395701 52.62508156 -75.34611882 48.9217955 -75.3125 44 C-75.30686035 43.14857422 -75.3012207 42.29714844 -75.29541016 41.41992188 C-75.0293603 27.52210956 -70.73538791 15.20767833 -61 5 C-43.12952852 -9.8240958 -19.88027631 -13.61477185 0 0 Z " fill="#000001" transform="translate(163,11)"/>
<path d="M0 0 C2.12644429 5.07664629 2.28267233 9.90771335 2.1875 15.3125 C2.1865332 16.38467773 2.1865332 16.38467773 2.18554688 17.47851562 C2.14110439 22.71779123 2.14110439 22.71779123 1 25 C-2.13903969 26.04634656 -4.40229778 26.14941327 -7.69873047 26.18945312 C-8.87200897 26.20617065 -10.04528748 26.22288818 -11.25411987 26.2401123 C-12.52893219 26.25368774 -13.80374451 26.26726318 -15.1171875 26.28125 C-16.452654 26.29932788 -17.78811346 26.31793257 -19.12356567 26.33703613 C-23.37398218 26.39669641 -27.62447779 26.44852893 -31.875 26.5 C-41.37362802 26.61693231 -50.87140558 26.74977874 -60.36901855 26.93359375 C-62.6866873 26.9759811 -65.00449157 27.01181017 -67.3223877 27.0390625 C-70.21860426 27.07569014 -73.1124163 27.14227143 -76.0078125 27.21875 C-77.22439041 27.22449036 -77.22439041 27.22449036 -78.46554565 27.23034668 C-84.32097659 27.43551824 -88.48211543 29.24451103 -93 33 C-96.54262942 37.3593688 -98.37558618 42.3266719 -98 48 C-96.81314593 54.21769816 -95.20225035 58.39941481 -90.0859375 62.28515625 C-84.54124407 65.75492406 -79.40192469 65.85712685 -73 65.8125 C-70.93745956 65.83660103 -68.87495184 65.86376835 -66.8125 65.89453125 C-65.91144531 65.89300049 -65.01039062 65.89146973 -64.08203125 65.88989258 C-62 66 -62 66 -61 67 C-60.91251793 68.92667507 -60.89302666 70.85651861 -60.90234375 72.78515625 C-60.90717773 74.53989258 -60.90717773 74.53989258 -60.91210938 76.33007812 C-60.92467773 78.17762695 -60.92467773 78.17762695 -60.9375 80.0625 C-60.94201172 81.29806641 -60.94652344 82.53363281 -60.95117188 83.80664062 C-60.96300392 86.87114117 -60.97948827 89.93554721 -61 93 C-68.30970801 96.654854 -82.51300625 95.03621739 -90.28515625 93.12890625 C-104.33641221 88.38291171 -114.8000923 79.33410017 -121.9921875 66.43359375 C-124.64095686 60.03753441 -125.36309818 53.97042036 -125.3125 47.125 C-125.30512817 45.93982788 -125.30512817 45.93982788 -125.29760742 44.73071289 C-125.17764118 38.74532026 -124.46980636 33.50956802 -122 28 C-121.67128906 27.25878906 -121.34257813 26.51757812 -121.00390625 25.75390625 C-114.68784837 13.14364535 -104.10595913 4.40435406 -90.80081177 -0.07769775 C-86.7322802 -1.06496469 -82.91579076 -1.32053525 -78.75732422 -1.35058594 C-77.96454071 -1.36384415 -77.1717572 -1.37710236 -76.35494995 -1.39076233 C-73.75489801 -1.43158478 -71.15492795 -1.45850026 -68.5546875 -1.484375 C-66.73820291 -1.50819007 -64.92172541 -1.53255158 -63.10525513 -1.55743408 C-59.30768246 -1.60722061 -55.51011119 -1.65004197 -51.71240234 -1.68798828 C-46.84881885 -1.73719669 -41.98567569 -1.8043346 -37.12238884 -1.87673569 C-33.37524782 -1.93045274 -29.62804051 -1.97440885 -25.88074112 -2.01544952 C-24.08737482 -2.03631449 -22.29404168 -2.0602707 -20.50075912 -2.08739471 C-17.99512459 -2.12388367 -15.48970105 -2.14715299 -12.98388672 -2.16699219 C-12.24609985 -2.18039139 -11.50831299 -2.19379059 -10.74816895 -2.20759583 C-6.74192098 -2.22378203 -3.52017847 -2.00099134 0 0 Z " fill="#000000" transform="translate(147,75)"/>
<path d="M0 0 C14.59500404 0.18280429 25.058634 4.53374516 35.75927734 14.50439453 C45.58459055 24.69042727 48.50320475 35.93756876 48.43310547 49.68579102 C48.1500731 63.02857106 43.3079042 72.20528566 34.48974609 82.09033203 C24.6461134 91.51031471 12.02097276 94.49908478 -1.05322266 94.87939453 C-1.73520721 94.90057343 -2.41719177 94.92175232 -3.11984253 94.943573 C-28.04297651 95.6931436 -52.99728373 95.40328684 -77.92822266 95.31689453 C-79.9331899 91.30696005 -79.1570015 86.22559041 -79.17822266 81.81689453 C-79.19884766 80.74568359 -79.21947266 79.67447266 -79.24072266 78.57080078 C-79.24587891 77.54857422 -79.25103516 76.52634766 -79.25634766 75.47314453 C-79.27036621 74.06258789 -79.27036621 74.06258789 -79.28466797 72.62353516 C-79.16704102 71.86234375 -79.04941406 71.10115234 -78.92822266 70.31689453 C-75.2166541 67.84251549 -73.31141607 68.0547976 -68.87744141 68.02978516 C-67.80601143 68.0195356 -67.80601143 68.0195356 -66.7129364 68.00907898 C-65.16117499 67.99549011 -63.60936878 67.98643737 -62.05755615 67.98136902 C-59.59257566 67.97306657 -57.12796332 67.95254361 -54.66308594 67.92883301 C-49.4181865 67.88058591 -44.17324946 67.8477314 -38.92822266 67.81689453 C-32.87493617 67.78109605 -26.82182622 67.73882945 -20.76870728 67.68095398 C-18.35660324 67.66108425 -15.94463896 67.65260257 -13.5324707 67.64465332 C2.36770722 68.02272985 2.36770722 68.02272985 16.07177734 61.31689453 C19.18420934 56.70848715 21.07177734 51.91111802 21.07177734 46.31689453 C19.36451478 39.62137321 17.43155686 33.91982625 11.24511719 30.22631836 C8.75987427 29.18638016 6.88059737 29.0329692 4.19287109 28.97314453 C3.27183594 28.94349609 2.35080078 28.91384766 1.40185547 28.88330078 C-0.53043414 28.83894032 -2.46272582 28.79466985 -4.39501953 28.75048828 C-5.31476563 28.72083984 -6.23451172 28.69119141 -7.18212891 28.66064453 C-8.44005249 28.63260742 -8.44005249 28.63260742 -9.72338867 28.60400391 C-11.92822266 28.31689453 -11.92822266 28.31689453 -14.92822266 26.31689453 C-15.28466797 23.81079102 -15.28466797 23.81079102 -15.25634766 20.68798828 C-15.25119141 19.57101563 -15.24603516 18.45404297 -15.24072266 17.30322266 C-15.22009766 16.13210937 -15.19947266 14.96099609 -15.17822266 13.75439453 C-15.17306641 12.57941406 -15.16791016 11.40443359 -15.16259766 10.19384766 C-15.04935989 -2.05706298 -11.34175612 0.01568226 0 0 Z " fill="#000000" transform="translate(271.92822265625,142.68310546875)"/>
<path d="M0 0 C1.07507813 -0.00128906 2.15015625 -0.00257813 3.2578125 -0.00390625 C4.38960937 -0.00003906 5.52140625 0.00382813 6.6875 0.0078125 C7.81929687 0.00394531 8.95109375 0.00007812 10.1171875 -0.00390625 C11.19226563 -0.00261719 12.26734375 -0.00132812 13.375 0 C14.86580078 0.00169189 14.86580078 0.00169189 16.38671875 0.00341797 C18.6875 0.1328125 18.6875 0.1328125 19.6875 1.1328125 C19.92034893 4.40886752 20.07423283 7.66390343 20.1875 10.9453125 C20.22883057 12.03521484 20.27016113 13.12511719 20.31274414 14.24804688 C20.61079208 22.85806925 20.76903217 31.46800253 20.90234375 40.08203125 C20.92096466 41.22904007 20.93958557 42.37604889 20.95877075 43.55781555 C21.05332804 49.39760349 21.13831569 55.23724247 21.20703125 61.07739258 C21.24050555 63.28337168 21.27434504 65.48934528 21.30859375 67.6953125 C21.31696762 68.6987822 21.32534149 69.70225189 21.33396912 70.73612976 C21.4908998 79.74048381 21.74360769 87.88501354 28.0546875 94.7578125 C33.07483338 98.98530377 39.0040051 99.27161396 45.3125 98.9453125 C50.74634257 97.63716522 54.1747139 95.23149652 57.3203125 90.66015625 C60.36071127 85.6574216 60.42951123 80.99374753 60.4375 75.2578125 C60.47057332 73.38535382 60.50686809 71.51294837 60.546875 69.640625 C60.55170898 68.82223145 60.55654297 68.00383789 60.56152344 67.16064453 C60.6875 65.1328125 60.6875 65.1328125 61.6875 63.1328125 C64.5204581 62.9360793 67.35346323 62.75021609 70.1875 62.5703125 C71.37472656 62.48620117 71.37472656 62.48620117 72.5859375 62.40039062 C77.77562389 62.08135253 82.5651699 62.16949141 87.6875 63.1328125 C91.51548258 70.78877767 89.33973167 85.43976804 87.0625 93.3203125 C81.75543278 107.71456851 73.23022083 116.29328641 59.703125 123.13671875 C49.7124123 127.71211151 34.99892309 127.86625879 24.6875 124.1328125 C13.05324138 119.51788991 3.71298935 111.12639335 -2.3125 100.1328125 C-3.59423766 96.84569932 -4.52877461 93.5691469 -5.3125 90.1328125 C-5.48530487 89.59685959 -5.65810974 89.06090668 -5.83615112 88.50871277 C-6.54277305 84.98427236 -6.45119745 81.47131707 -6.44189453 77.8918457 C-6.44364685 77.06381439 -6.44539917 76.23578308 -6.44720459 75.38265991 C-6.45160107 72.64961646 -6.44869367 69.91663784 -6.4453125 67.18359375 C-6.44598598 65.28598518 -6.44695637 63.3883767 -6.44821167 61.49076843 C-6.44968549 57.51719337 -6.44754348 53.54364081 -6.44287109 49.57006836 C-6.43716234 44.46521632 -6.44046205 39.36041673 -6.44644356 34.2555666 C-6.45004774 30.33950908 -6.44891145 26.42346412 -6.44631577 22.50740623 C-6.4456467 20.62424908 -6.4464742 18.7410908 -6.44879532 16.85793495 C-6.45132076 14.23379088 -6.44748334 11.60973329 -6.44189453 8.9855957 C-6.44391876 8.20066238 -6.44594299 7.41572906 -6.44802856 6.60700989 C-6.42311438 0.32685619 -6.19899606 0.00703518 0 0 Z " fill="#000000" transform="translate(163.3125,180.8671875)"/>
<path d="M0 0 C1.93746094 -0.00386719 1.93746094 -0.00386719 3.9140625 -0.0078125 C9.1820801 0.19434619 9.1820801 0.19434619 11.375 1.125 C12.7169751 5.15092531 12.52242033 9.0323256 12.52026367 13.23046875 C12.52362228 14.16243073 12.5269809 15.0943927 12.53044128 16.05459595 C12.53995388 19.14057745 12.54189442 22.22650474 12.54296875 25.3125 C12.54618063 27.45336937 12.54954465 29.59423852 12.55305481 31.73510742 C12.55904651 36.22412627 12.56089462 40.71312587 12.56030273 45.20214844 C12.560201 50.96265141 12.57386489 56.72303145 12.59107494 62.48350525 C12.6021755 66.90491303 12.60422256 71.32629089 12.60369301 75.74771118 C12.60487562 77.87204411 12.60931302 79.99637776 12.61702538 82.12069702 C12.62678796 85.08706365 12.62396223 88.05316057 12.61791992 91.01953125 C12.62353943 91.90170319 12.62915894 92.78387512 12.63494873 93.69277954 C12.60331794 99.78252309 12.60331794 99.78252309 10.375 103.125 C8.06835937 103.51318359 8.06835937 103.51318359 5.21875 103.5234375 C4.19652344 103.52730469 3.17429688 103.53117187 2.12109375 103.53515625 C1.04988281 103.52355469 -0.02132812 103.51195312 -1.125 103.5 C-2.73181641 103.51740234 -2.73181641 103.51740234 -4.37109375 103.53515625 C-5.39332031 103.53128906 -6.41554687 103.52742188 -7.46875 103.5234375 C-8.40912109 103.52005371 -9.34949219 103.51666992 -10.31835938 103.51318359 C-11.46014648 103.32103271 -11.46014648 103.32103271 -12.625 103.125 C-15.28667021 99.13249469 -14.89743849 95.6534707 -14.86791992 91.01953125 C-14.86981827 90.08756927 -14.87171661 89.1556073 -14.87367249 88.19540405 C-14.87738248 85.10935094 -14.86667262 82.02353226 -14.85546875 78.9375 C-14.85427694 76.79663114 -14.85382379 74.65576175 -14.8540802 72.51489258 C-14.85251493 68.02584566 -14.84422201 63.53687844 -14.83081055 59.04785156 C-14.8138207 53.28737745 -14.8099962 47.52699098 -14.81075573 41.76649475 C-14.81048408 37.34508423 -14.80500361 32.92369295 -14.79775429 28.50228882 C-14.79456723 26.37796169 -14.79260013 24.25363237 -14.79186058 22.12930298 C-14.78969743 19.16298696 -14.78095363 16.1967647 -14.77026367 13.23046875 C-14.77071686 12.34829681 -14.77117004 11.46612488 -14.77163696 10.55722046 C-14.75373558 7.16770809 -14.70425501 4.36276503 -13.625 1.125 C-9.0337391 0.22949091 -4.67484186 -0.00936842 0 0 Z " fill="#000000" transform="translate(239.625,103.875)"/>
<path d="M0 0 C4.14581887 -0.02886751 8.29161216 -0.04675327 12.4375 -0.0625 C14.21350586 -0.07506836 14.21350586 -0.07506836 16.02539062 -0.08789062 C17.15009766 -0.09111328 18.27480469 -0.09433594 19.43359375 -0.09765625 C20.47572021 -0.10289307 21.51784668 -0.10812988 22.59155273 -0.11352539 C25 0 25 0 26 1 C26.10065815 4.06390489 26.13614435 7.10530971 26.12939453 10.16967773 C26.13114685 11.13221466 26.13289917 12.09475159 26.13470459 13.0864563 C26.13912536 16.28552017 26.13618409 19.48452927 26.1328125 22.68359375 C26.13348553 24.89697785 26.13445555 27.11036188 26.13571167 29.32374573 C26.13718899 33.97015077 26.13503319 38.61653663 26.13037109 43.26293945 C26.12467711 49.22982786 26.12795051 55.19667126 26.13394356 61.16355801 C26.13755107 65.73676393 26.13640965 70.30995912 26.13381577 74.88316536 C26.13314685 77.08367989 26.13397368 79.28419538 26.13629532 81.48470879 C26.13882458 84.55680814 26.13497718 87.62883388 26.12939453 90.70092773 C26.13141876 91.61788925 26.13344299 92.53485077 26.13552856 93.479599 C26.11426299 99.77147401 26.11426299 99.77147401 25 102 C17.08 102 9.16 102 1 102 C-1.25004247 95.24987259 -1.25004247 95.24987259 -1.24723816 91.76802063 C-1.25143265 90.9815918 -1.25562714 90.19516296 -1.25994873 89.38490295 C-1.25432922 88.54156906 -1.24870972 87.69823517 -1.24291992 86.8293457 C-1.24481827 85.92620636 -1.24671661 85.02306702 -1.24867249 84.09255981 C-1.25236432 81.12021078 -1.24170045 78.1481084 -1.23046875 75.17578125 C-1.22927615 73.10646086 -1.22882396 71.03713993 -1.2290802 68.96781921 C-1.2275182 64.63793534 -1.21924855 60.30813448 -1.20581055 55.97827148 C-1.1887893 50.42302635 -1.18499729 44.86787211 -1.18575573 39.31260395 C-1.18548414 35.04303619 -1.18000518 30.77348837 -1.17275429 26.50392723 C-1.16956879 24.4549595 -1.16760049 22.4059895 -1.16686058 20.35701942 C-1.16469758 17.49879713 -1.15595504 14.64067216 -1.14526367 11.7824707 C-1.14571686 10.93306412 -1.14617004 10.08365753 -1.14663696 9.20851135 C-1.12842822 5.88708181 -1.0576658 3.17299739 0 0 Z " fill="#000000" transform="translate(91,105)"/>
<path d="M0 0 C3.21438732 -0.04364119 6.42862574 -0.07478872 9.64318848 -0.10186768 C10.55388092 -0.11697891 11.46457336 -0.13209015 12.40286255 -0.1476593 C17.12218985 -0.1710764 20.8693748 0.21590672 25.30725098 2.05047607 C25.36511766 5.84207905 25.40080151 9.63356919 25.43225098 13.42547607 C25.44900879 14.50571045 25.4657666 15.58594482 25.48303223 16.69891357 C25.48947754 17.73016357 25.49592285 18.76141357 25.50256348 19.82391357 C25.51303711 20.77701416 25.52351074 21.73011475 25.53430176 22.71209717 C25.30725098 25.05047607 25.30725098 25.05047607 23.30725098 27.05047607 C20.29942368 27.24411733 17.38397523 27.31261802 14.37536621 27.293396 C13.45009125 27.29529434 12.52481628 27.29719269 11.57150269 27.29914856 C8.50286476 27.30286341 5.43446174 27.2921428 2.36584473 27.28094482 C0.24117562 27.27975341 -1.88349402 27.27929978 -4.00816345 27.27955627 C-8.46450082 27.27799023 -12.920758 27.26969074 -17.3770752 27.25628662 C-23.10302419 27.23928631 -28.82888503 27.2354725 -34.5548563 27.2362318 C-38.94273223 27.23596052 -43.3305887 27.23048622 -47.71845818 27.22323036 C-49.83048289 27.22003765 -51.94250982 27.21807489 -54.05453682 27.21733665 C-56.99981608 27.21518004 -59.94499987 27.20645089 -62.89025879 27.19573975 C-64.21263298 27.19641953 -64.21263298 27.19641953 -65.5617218 27.19711304 C-71.57827497 27.16495012 -71.57827497 27.16495012 -72.69274902 26.05047607 C-72.79221355 24.28188415 -72.8235512 22.50936157 -72.82556152 20.73797607 C-72.82685059 19.66289795 -72.82813965 18.58781982 -72.82946777 17.48016357 C-72.82366699 15.78246826 -72.82366699 15.78246826 -72.81774902 14.05047607 C-72.82161621 12.9186792 -72.8254834 11.78688232 -72.82946777 10.62078857 C-72.82817871 9.54571045 -72.82688965 8.47063232 -72.82556152 7.36297607 C-72.82443359 6.36910889 -72.82330566 5.3752417 -72.82214355 4.35125732 C-72.69274902 2.05047607 -72.69274902 2.05047607 -71.69274902 1.05047607 C-69.69851289 0.92659645 -67.69991953 0.87248158 -65.70202637 0.84515381 C-63.77137833 0.81523598 -63.77137833 0.81523598 -61.80172729 0.78471375 C-60.3773821 0.76768704 -58.95303511 0.75080996 -57.52868652 0.73406982 C-56.060633 0.71346159 -54.5925849 0.69246421 -53.12454224 0.6710968 C-50.02572789 0.62699921 -46.92689368 0.58613899 -43.82800293 0.54779053 C-39.92723259 0.49948501 -36.02656502 0.44571926 -32.12589645 0.38985252 C-23.98471698 0.27340302 -15.84349757 0.17551573 -7.7019043 0.09313965 C-5.13448294 0.06686928 -2.56733635 0.03509284 0 0 Z " fill="#000000" transform="translate(195.6927490234375,141.94952392578125)"/>
<path d="M0 0 C4.14581887 -0.02886751 8.29161216 -0.04675327 12.4375 -0.0625 C14.21350586 -0.07506836 14.21350586 -0.07506836 16.02539062 -0.08789062 C17.15009766 -0.09111328 18.27480469 -0.09433594 19.43359375 -0.09765625 C20.47572021 -0.10289307 21.51784668 -0.10812988 22.59155273 -0.11352539 C25 0 25 0 26 1 C26.10065815 4.06390489 26.13614435 7.10530971 26.12939453 10.16967773 C26.13114685 11.13221466 26.13289917 12.09475159 26.13470459 13.0864563 C26.13912536 16.28552017 26.13618409 19.48452927 26.1328125 22.68359375 C26.13348553 24.89697785 26.13445555 27.11036188 26.13571167 29.32374573 C26.13718899 33.97015077 26.13503319 38.61653663 26.13037109 43.26293945 C26.12467711 49.22982786 26.12795051 55.19667126 26.13394356 61.16355801 C26.13755107 65.73676393 26.13640965 70.30995912 26.13381577 74.88316536 C26.13314685 77.08367989 26.13397368 79.28419538 26.13629532 81.48470879 C26.13882458 84.55680814 26.13497718 87.62883388 26.12939453 90.70092773 C26.13141876 91.61788925 26.13344299 92.53485077 26.13552856 93.479599 C26.11426299 99.77147401 26.11426299 99.77147401 25 102 C17.08 102 9.16 102 1 102 C-1.25004247 95.24987259 -1.25004247 95.24987259 -1.24723816 91.76802063 C-1.25143265 90.9815918 -1.25562714 90.19516296 -1.25994873 89.38490295 C-1.25432922 88.54156906 -1.24870972 87.69823517 -1.24291992 86.8293457 C-1.24481827 85.92620636 -1.24671661 85.02306702 -1.24867249 84.09255981 C-1.25236432 81.12021078 -1.24170045 78.1481084 -1.23046875 75.17578125 C-1.22927615 73.10646086 -1.22882396 71.03713993 -1.2290802 68.96781921 C-1.2275182 64.63793534 -1.21924855 60.30813448 -1.20581055 55.97827148 C-1.1887893 50.42302635 -1.18499729 44.86787211 -1.18575573 39.31260395 C-1.18548414 35.04303619 -1.18000518 30.77348837 -1.17275429 26.50392723 C-1.16956879 24.4549595 -1.16760049 22.4059895 -1.16686058 20.35701942 C-1.16469758 17.49879713 -1.15595504 14.64067216 -1.14526367 11.7824707 C-1.14571686 10.93306412 -1.14617004 10.08365753 -1.14663696 9.20851135 C-1.12842822 5.88708181 -1.0576658 3.17299739 0 0 Z M12.4375 2.4375 C11.10428711 2.49647461 11.10428711 2.49647461 9.74414062 2.55664062 C8.89916016 2.59853516 8.05417969 2.64042969 7.18359375 2.68359375 C6.40556396 2.72025146 5.62753418 2.75690918 4.82592773 2.79467773 C2.98231779 2.80979444 2.98231779 2.80979444 2 4 C1.90473194 6.95246354 1.87447548 9.88148421 1.88647461 12.83422852 C1.88632858 13.76096375 1.88618256 14.68769897 1.8860321 15.64251709 C1.88673162 18.72133687 1.89452579 21.80009697 1.90234375 24.87890625 C1.90420779 27.00740018 1.90563176 29.13589453 1.90663147 31.26438904 C1.91045772 36.8786232 1.92028892 42.49283168 1.93133545 48.10705566 C1.94154727 53.83113253 1.9461286 59.55521353 1.95117188 65.27929688 C1.9619111 76.51954438 1.97950876 87.75976604 2 99 C9.26 99 16.52 99 24 99 C24 66.99 24 34.98 24 2 C20.14258971 2 16.28958086 2.24952519 12.4375 2.4375 Z " fill="#05070B" transform="translate(91,105)"/>
<path d="M0 0 C1.93746094 -0.00386719 1.93746094 -0.00386719 3.9140625 -0.0078125 C9.1820801 0.19434619 9.1820801 0.19434619 11.375 1.125 C12.7169751 5.15092531 12.52242033 9.0323256 12.52026367 13.23046875 C12.52362228 14.16243073 12.5269809 15.0943927 12.53044128 16.05459595 C12.53995388 19.14057745 12.54189442 22.22650474 12.54296875 25.3125 C12.54618063 27.45336937 12.54954465 29.59423852 12.55305481 31.73510742 C12.55904651 36.22412627 12.56089462 40.71312587 12.56030273 45.20214844 C12.560201 50.96265141 12.57386489 56.72303145 12.59107494 62.48350525 C12.6021755 66.90491303 12.60422256 71.32629089 12.60369301 75.74771118 C12.60487562 77.87204411 12.60931302 79.99637776 12.61702538 82.12069702 C12.62678796 85.08706365 12.62396223 88.05316057 12.61791992 91.01953125 C12.62353943 91.90170319 12.62915894 92.78387512 12.63494873 93.69277954 C12.60331794 99.78252309 12.60331794 99.78252309 10.375 103.125 C8.06835937 103.51318359 8.06835937 103.51318359 5.21875 103.5234375 C4.19652344 103.52730469 3.17429688 103.53117187 2.12109375 103.53515625 C1.04988281 103.52355469 -0.02132812 103.51195312 -1.125 103.5 C-2.73181641 103.51740234 -2.73181641 103.51740234 -4.37109375 103.53515625 C-5.39332031 103.53128906 -6.41554687 103.52742188 -7.46875 103.5234375 C-8.40912109 103.52005371 -9.34949219 103.51666992 -10.31835938 103.51318359 C-11.46014648 103.32103271 -11.46014648 103.32103271 -12.625 103.125 C-15.28667021 99.13249469 -14.89743849 95.6534707 -14.86791992 91.01953125 C-14.86981827 90.08756927 -14.87171661 89.1556073 -14.87367249 88.19540405 C-14.87738248 85.10935094 -14.86667262 82.02353226 -14.85546875 78.9375 C-14.85427694 76.79663114 -14.85382379 74.65576175 -14.8540802 72.51489258 C-14.85251493 68.02584566 -14.84422201 63.53687844 -14.83081055 59.04785156 C-14.8138207 53.28737745 -14.8099962 47.52699098 -14.81075573 41.76649475 C-14.81048408 37.34508423 -14.80500361 32.92369295 -14.79775429 28.50228882 C-14.79456723 26.37796169 -14.79260013 24.25363237 -14.79186058 22.12930298 C-14.78969743 19.16298696 -14.78095363 16.1967647 -14.77026367 13.23046875 C-14.77071686 12.34829681 -14.77117004 11.46612488 -14.77163696 10.55722046 C-14.75373558 7.16770809 -14.70425501 4.36276503 -13.625 1.125 C-9.0337391 0.22949091 -4.67484186 -0.00936842 0 0 Z M-12.625 4.125 C-12.625 35.805 -12.625 67.485 -12.625 100.125 C-5.035 100.125 2.555 100.125 10.375 100.125 C10.375 68.445 10.375 36.765 10.375 4.125 C3.10176138 1.70058713 -4.96789874 3.74214494 -12.625 4.125 Z " fill="#04060A" transform="translate(239.625,103.875)"/>
<path d="M0 0 C0.66 0 1.32 0 2 0 C2.76416579 6.52279707 3.09024143 13.00167538 3.17578125 19.5625 C3.18769501 20.32554443 3.19960876 21.08858887 3.21188354 21.87475586 C3.26067341 25.04770262 3.3081257 28.22026175 3.32592773 31.39355469 C3.42721522 46.58356048 5.76297489 57.43619334 16.65625 68.71484375 C26.01996189 77.39394463 37.4444562 80.50398312 49.953125 80.25 C61.95386883 79.26532358 73.90073354 74.02042766 82 65 C91.26210687 51.84780825 92.31281066 38.58834773 93 23 C93.33 23 93.66 23 94 23 C95.04129731 50.61840867 95.04129731 50.61840867 89 60 C88.55398437 60.72574219 88.10796875 61.45148438 87.6484375 62.19921875 C80.65973768 72.44801039 70.27418482 79.92797486 58.09765625 82.6484375 C43.62112851 84.29142299 30.3231882 83.05161917 18.38671875 74.0234375 C9.50786977 66.39759756 3.61653546 58.47250163 1 47 C0.74030174 46.07728302 0.74030174 46.07728302 0.47535706 45.13592529 C-0.02569013 42.88456635 -0.12030327 40.90311136 -0.11352539 38.59863281 C-0.11344986 37.7380426 -0.11337433 36.87745239 -0.11329651 35.99078369 C-0.10813522 35.07085632 -0.10297394 34.15092896 -0.09765625 33.203125 C-0.0962413 32.25435486 -0.09482635 31.30558472 -0.09336853 30.32806396 C-0.08777742 27.30201038 -0.07522652 24.27603117 -0.0625 21.25 C-0.05748385 19.19661565 -0.05292115 17.14323014 -0.04882812 15.08984375 C-0.03781089 10.05986724 -0.02055233 5.02994622 0 0 Z " fill="#06080D" transform="translate(157,224)"/>
<path d="M0 0 C14.59500404 0.18280429 25.058634 4.53374516 35.75927734 14.50439453 C45.58459055 24.69042727 48.50320475 35.93756876 48.43310547 49.68579102 C48.1500731 63.02857106 43.3079042 72.20528566 34.48974609 82.09033203 C28.29640548 88.01712381 16.75415986 94.47991996 8.06005859 94.41455078 C6.92407227 94.4097168 6.92407227 94.4097168 5.76513672 94.40478516 C4.58661133 94.3922168 4.58661133 94.3922168 3.38427734 94.37939453 C2.58699219 94.37488281 1.78970703 94.37037109 0.96826172 94.36572266 C-0.99726522 94.35395303 -2.96275351 94.33601801 -4.92822266 94.31689453 C-5.25822266 93.65689453 -5.58822266 92.99689453 -5.92822266 92.31689453 C-5.34443848 92.28249268 -4.7606543 92.24809082 -4.15917969 92.21264648 C10.24909665 91.59974125 10.24909665 91.59974125 23.42724609 86.34033203 C25.07177734 85.31689453 25.07177734 85.31689453 27.07177734 85.31689453 C27.07177734 84.65689453 27.07177734 83.99689453 27.07177734 83.31689453 C28.73457061 82.31046703 30.40161219 81.31104046 32.07177734 80.31689453 C33.06177734 78.83189453 33.06177734 78.83189453 34.07177734 77.31689453 C34.73177734 77.31689453 35.39177734 77.31689453 36.07177734 77.31689453 C36.50683594 76.43130859 36.50683594 76.43130859 36.95068359 75.52783203 C37.91073165 73.63449685 38.95238887 71.78292607 40.00927734 69.94189453 C45.73871477 58.2676273 46.36905006 44.94977672 43.38427734 32.43408203 C39.58264051 21.60620569 31.35375376 13.17267485 21.35693359 7.87939453 C10.60574181 2.90643854 -0.29036385 3.10699327 -11.92822266 3.31689453 C-12.05197266 4.45126953 -12.17572266 5.58564453 -12.30322266 6.75439453 C-12.50947266 7.93001953 -12.71572266 9.10564453 -12.92822266 10.31689453 C-13.91822266 10.81189453 -13.91822266 10.81189453 -14.92822266 11.31689453 C-14.95510416 9.67114887 -14.97456389 8.0252804 -14.99072266 6.37939453 C-15.00232422 5.46287109 -15.01392578 4.54634766 -15.02587891 3.60205078 C-14.77312509 -2.31238852 -4.45376759 0.00615823 0 0 Z " fill="#06080D" transform="translate(271.92822265625,142.68310546875)"/>
<path d="M0 0 C0 0.66 0 1.32 0 2 C-1.20244606 2.0154612 -1.20244606 2.0154612 -2.42918396 2.03123474 C-10.0616254 2.13006813 -17.6940029 2.2326872 -25.32633877 2.33933926 C-29.24821599 2.39401479 -33.17010095 2.44733238 -37.09204102 2.49731445 C-40.89171007 2.54579212 -44.69130949 2.59813962 -48.49089241 2.65294075 C-49.92539753 2.6729945 -51.35992143 2.69175769 -52.7944622 2.70907402 C-60.56326313 2.80377566 -68.32260901 3.00252701 -76.08227539 3.39477539 C-77.11603003 3.43925513 -77.11603003 3.43925513 -78.1706686 3.48463345 C-86.77747815 3.96830756 -96.20389999 6.5108423 -103 12 C-103.66 12 -104.32 12 -105 12 C-105 12.66 -105 13.32 -105 14 C-105.66 14 -106.32 14 -107 14 C-107 14.66 -107 15.32 -107 16 C-107.66 16 -108.32 16 -109 16 C-109 16.66 -109 17.32 -109 18 C-109.66 18 -110.32 18 -111 18 C-111.2475 18.680625 -111.495 19.36125 -111.75 20.0625 C-113 23 -113 23 -114.9375 26.1875 C-120.48768803 35.87434503 -121.75648363 46.83719662 -119.09765625 57.6796875 C-118.39724368 59.91801664 -117.65985669 62.14533412 -116.875 64.35546875 C-116 67 -116 67 -116 70 C-119 69 -119 69 -119.9140625 67.29296875 C-120.14867187 66.59816406 -120.38328125 65.90335937 -120.625 65.1875 C-120.86476563 64.50042969 -121.10453125 63.81335938 -121.3515625 63.10546875 C-124.59439106 52.57604349 -124.54397828 39.13656692 -120 29 C-119.67128906 28.25878906 -119.34257813 27.51757812 -119.00390625 26.75390625 C-112.68675165 14.14145572 -102.10671774 5.40985719 -88.80279541 0.92131042 C-84.72147788 -0.06747808 -80.89642017 -0.31359757 -76.72558594 -0.3347168 C-75.92958984 -0.34636871 -75.13359375 -0.35802063 -74.31347656 -0.37002563 C-71.70379679 -0.40577575 -69.09420864 -0.42780637 -66.484375 -0.44921875 C-64.66309812 -0.47048869 -62.84182928 -0.49245672 -61.02056885 -0.51509094 C-57.21459567 -0.56036866 -53.40863062 -0.5991974 -49.60253906 -0.63305664 C-44.72091724 -0.67672271 -39.83955694 -0.73346173 -34.95812607 -0.7946043 C-31.2024537 -0.84073888 -27.44673905 -0.88154803 -23.69098663 -0.92057228 C-21.89040978 -0.93962938 -20.08984623 -0.95998794 -18.28929901 -0.98166466 C-15.7784953 -1.01078581 -13.26772404 -1.03311535 -10.75683594 -1.0534668 C-10.01185852 -1.06327072 -9.2668811 -1.07307465 -8.49932861 -1.08317566 C-5.37899161 -1.10210461 -2.98558017 -0.99519339 0 0 Z " fill="#080A10" transform="translate(145,74)"/>
<path d="M0 0 C3.45181348 2.88054561 6.75437922 5.88989574 10 9 C9.505 10.485 9.505 10.485 9 12 C8.41605469 11.34644531 8.41605469 11.34644531 7.8203125 10.6796875 C-1.52822254 0.72802116 -13.97910185 -4.86423971 -27.6875 -5.4375 C-38.14877641 -4.82905803 -49.65094095 -1.35861094 -57.1875 6.19140625 C-59 8 -59 8 -61 8 C-61.226875 8.66 -61.45375 9.32 -61.6875 10 C-63.09948577 13.22739604 -64.84270461 16.00604112 -66.78125 18.9375 C-70.4289665 25.11055869 -70.64348361 31.22796458 -71.2109375 38.2265625 C-71.28570312 39.0515625 -71.36046875 39.8765625 -71.4375 40.7265625 C-71.49808594 41.47502441 -71.55867188 42.22348633 -71.62109375 42.99462891 C-72 45 -72 45 -74 48 C-74.97854756 25.99355255 -74.97854756 25.99355255 -69 16 C-68.4534375 15.05898438 -67.906875 14.11796875 -67.34375 13.1484375 C-60.82433163 3.12068806 -50.81020228 -4.08753435 -39.3046875 -7.4140625 C-25.35501336 -9.88740898 -11.80709973 -8.18333556 0 0 Z " fill="#06080D" transform="translate(163,11)"/>
<path d="M0 0 C3.27623676 -0.04351705 6.55232829 -0.07476399 9.82873535 -0.10186768 C11.24504745 -0.12453453 11.24504745 -0.12453453 12.68997192 -0.1476593 C14.87521941 -0.15833759 17.06057545 -0.06496207 19.24279785 0.05047607 C20.23279785 1.04047607 20.23279785 1.04047607 21.24279785 2.05047607 C19.40922341 3.88405051 16.8464409 3.17047574 14.40686035 3.17489624 C13.56888916 3.17130096 12.73091797 3.16770569 11.86755371 3.16400146 C10.55060265 3.1642205 10.55060265 3.1642205 9.20704651 3.16444397 C6.2905535 3.16374452 3.37412352 3.15595063 0.4576416 3.14813232 C-1.55875107 3.14626826 -3.57514419 3.1448443 -5.59153748 3.1438446 C-10.90985353 3.14001852 -16.22814245 3.13018746 -21.54644775 3.11914062 C-26.96890903 3.10892845 -32.39137466 3.1043474 -37.81384277 3.0993042 C-48.46164309 3.08856527 -59.10941613 3.07096774 -69.75720215 3.05047607 C-69.75720215 10.64047607 -69.75720215 18.23047607 -69.75720215 26.05047607 C-70.74720215 26.05047607 -71.73720215 26.05047607 -72.75720215 26.05047607 C-72.78607198 22.07132448 -72.80395621 18.09219954 -72.81970215 14.11297607 C-72.82808105 12.97666748 -72.83645996 11.84035889 -72.84509277 10.6696167 C-72.84831543 9.59002686 -72.85153809 8.51043701 -72.8548584 7.39813232 C-72.86009521 6.39790039 -72.86533203 5.39766846 -72.87072754 4.36712646 C-72.75720215 2.05047607 -72.75720215 2.05047607 -71.75720215 1.05047607 C-69.76296602 0.92659645 -67.76437266 0.87248158 -65.76647949 0.84515381 C-63.83583145 0.81523598 -63.83583145 0.81523598 -61.86618042 0.78471375 C-60.44183523 0.76768704 -59.01748824 0.75080996 -57.59313965 0.73406982 C-56.12508613 0.71346159 -54.65703803 0.69246421 -53.18899536 0.6710968 C-50.09018102 0.62699921 -46.99134681 0.58613899 -43.89245605 0.54779053 C-39.99170605 0.49948526 -36.09105882 0.44572045 -32.19041061 0.38985252 C-24.05507042 0.27348964 -15.91968968 0.17543501 -7.78393555 0.09313965 C-5.18918022 0.06664989 -2.5946753 0.03485813 0 0 Z " fill="#06080D" transform="translate(195.7572021484375,141.94952392578125)"/>
<path d="M0 0 C0 0.66 0 1.32 0 2 C-4.81129313 2.94684317 -9.50502166 3.16850109 -14.39208984 3.20532227 C-15.21226593 3.21522186 -16.03244202 3.22512146 -16.87747192 3.23532104 C-19.5719317 3.2667542 -22.26640907 3.29162111 -24.9609375 3.31640625 C-26.83566734 3.3369915 -28.7103927 3.35798838 -30.58511353 3.37937927 C-35.50710411 3.43443769 -40.42913545 3.48391822 -45.35119629 3.53222656 C-50.37869878 3.58256045 -55.40614247 3.63818433 -60.43359375 3.69335938 C-70.2890122 3.80074229 -80.14448182 3.90223098 -90 4 C-89.67 3.01 -89.34 2.02 -89 1 C-76.82707284 0.23136415 -64.6897053 -0.09013605 -52.4921875 -0.0625 C-51.48219067 -0.06033981 -51.48219067 -0.06033981 -50.45178986 -0.05813599 C-45.59282389 -0.04591958 -40.73392083 -0.02381412 -35.875 0 C-30.95074042 0.02374012 -26.02651047 0.04396918 -21.10220718 0.05593872 C-19.15282674 0.0623822 -17.20346966 0.07495727 -15.25411987 0.08764648 C-14.08084137 0.09094971 -12.90756287 0.09425293 -11.69873047 0.09765625 C-10.15159866 0.10551147 -10.15159866 0.10551147 -8.57321167 0.11352539 C-0.70130605 -0.23376868 -0.70130605 -0.23376868 0 0 Z " fill="#224545" transform="translate(285,74)"/>
<path d="M0 0 C0.33 0 0.66 0 1 0 C1.33 21.45 1.66 42.9 2 65 C-1 63 -1 63 -1.67700195 60.61157227 C-2.1363254 55.47569033 -2.16271038 50.36907289 -2.16796875 45.21484375 C-2.17129715 44.08099747 -2.17462555 42.94715118 -2.17805481 41.77894592 C-2.18310632 39.3877096 -2.18546368 36.99646626 -2.18530273 34.60522461 C-2.18749432 30.94698542 -2.20568306 27.28904546 -2.22460938 23.63085938 C-2.22754263 21.30468853 -2.22952788 18.97851625 -2.23046875 16.65234375 C-2.23765427 15.55953598 -2.24483978 14.46672821 -2.25224304 13.34080505 C-2.24916641 12.31946976 -2.24608978 11.29813446 -2.24291992 10.24584961 C-2.24434494 9.35127548 -2.24576996 8.45670135 -2.24723816 7.53501892 C-1.97294387 4.72258403 -1.16205395 2.56305087 0 0 Z " fill="#244D4D" transform="translate(24,228)"/>
<path d="M0 0 C0.66 0 1.32 0 2 0 C4.57204732 10.73932286 4.30461668 21.57270181 4.26074219 32.54638672 C4.24997862 35.756375 4.26070535 38.96580949 4.2734375 42.17578125 C4.27211655 44.23698039 4.2695555 46.29817919 4.265625 48.359375 C4.26967346 49.30850769 4.27372192 50.25764038 4.27789307 51.23553467 C4.23879463 56.82736098 3.58303113 61.63152799 2 67 C1.34 67 0.68 67 0 67 C0 44.89 0 22.78 0 0 Z " fill="#204544" transform="translate(318,19)"/>
<path d="M0 0 C-0.33 0.99 -0.66 1.98 -1 3 C-27.73 3 -54.46 3 -82 3 C-82 2.34 -82 1.68 -82 1 C-72.34211679 0.86906206 -62.68422686 0.73863356 -53.02632809 0.60884857 C-48.54139305 0.54856316 -44.0564605 0.48810478 -39.5715332 0.42724609 C-35.24029135 0.3684793 -30.90904351 0.31017343 -26.57779121 0.25218201 C-24.92846011 0.23001898 -23.2791312 0.20769216 -21.62980461 0.18519592 C-19.31302319 0.1536243 -16.99623453 0.12264432 -14.67944336 0.09179688 C-13.3626207 0.07403198 -12.04579803 0.05626709 -10.68907166 0.03796387 C-7.1257354 0.00129393 -3.5634947 -0.00676974 0 0 Z " fill="#04050C" transform="translate(278,210)"/>
<path d="M0 0 C1.1127832 -0.00021904 1.1127832 -0.00021904 2.24804688 -0.0004425 C4.69371491 0.0002527 7.13930625 0.00802673 9.58496094 0.01586914 C11.28318236 0.01773471 12.98140431 0.01915796 14.67962646 0.02015686 C19.14466849 0.02397107 23.60967788 0.033792 28.07470703 0.04486084 C32.63280801 0.05509852 37.19091427 0.05965953 41.74902344 0.06469727 C50.68914193 0.07541525 59.62923622 0.09247852 68.56933594 0.11352539 C68.56933594 0.44352539 68.56933594 0.77352539 68.56933594 1.11352539 C57.61406293 2.18460834 46.66036034 2.40459624 35.66162109 2.61621094 C32.60340746 2.67536634 29.54537256 2.74066191 26.48730469 2.80688477 C13.51303824 3.07698597 0.54619433 3.16675079 -12.43066406 3.11352539 C-11.43066406 1.11352539 -11.43066406 1.11352539 -9.83258057 0.49562073 C-6.5522381 -0.02621405 -3.31167305 -0.01710011 0 0 Z " fill="#040509" transform="translate(74.4306640625,98.886474609375)"/>
<path d="M0 0 C3.7232067 1.2410689 5.24140025 3.24140025 8 6 C11.59973493 8.53435272 14.09749877 9.38317625 18.484375 9.4765625 C19.50144531 9.5075 20.51851562 9.5384375 21.56640625 9.5703125 C22.61699219 9.58835938 23.66757813 9.60640625 24.75 9.625 C26.84905691 9.67576317 28.94802844 9.73024132 31.046875 9.7890625 C31.97338867 9.80662598 32.89990234 9.82418945 33.85449219 9.84228516 C36 10 36 10 37 11 C37.08737645 12.85369611 37.10698153 14.71067541 37.09765625 16.56640625 C37.09443359 17.69111328 37.09121094 18.81582031 37.08789062 19.97460938 C37.07532227 21.75061523 37.07532227 21.75061523 37.0625 23.5625 C37.05798828 24.75037109 37.05347656 25.93824219 37.04882812 27.16210938 C37.03699675 30.10812226 37.02051287 33.05403681 37 36 C35 34 35 34 34.77294922 31.84521484 C34.78342285 30.97590332 34.79389648 30.1065918 34.8046875 29.2109375 C34.81113281 28.26992187 34.81757812 27.32890625 34.82421875 26.359375 C34.84097656 25.37453125 34.85773438 24.3896875 34.875 23.375 C34.88402344 22.38242188 34.89304688 21.38984375 34.90234375 20.3671875 C34.92595884 17.91121866 34.95889201 15.45572832 35 13 C33.72125 13.03480469 32.4425 13.06960937 31.125 13.10546875 C29.41667991 13.13362787 27.70834548 13.16092574 26 13.1875 C24.74123047 13.22520508 24.74123047 13.22520508 23.45703125 13.26367188 C16.30548615 13.34682938 10.42974084 12.08087442 4.625 7.625 C2.08332162 5.08332162 0.97570087 3.41495305 0 0 Z " fill="#06090F" transform="translate(49,131)"/>
<path d="M0 0 C3 3 3 3 3.3742218 5.96681213 C3.37359238 7.17989548 3.37296295 8.39297882 3.37231445 9.64282227 C3.37596512 10.31304413 3.37961578 10.98326599 3.38337708 11.67379761 C3.3914806 13.88825855 3.3778764 16.10198735 3.36328125 18.31640625 C3.36276268 19.85432434 3.36328027 21.39224309 3.36479187 22.93016052 C3.36470216 26.15235293 3.35427433 29.37429506 3.33618164 32.59643555 C3.31347529 36.73163874 3.31295387 40.8664768 3.31969929 45.0017252 C3.3230364 48.17668416 3.3164144 51.35155949 3.30657005 54.52650261 C3.30271473 56.05156962 3.30157121 57.57664593 3.3031559 59.101717 C3.30352571 61.23018336 3.29093132 63.35817678 3.2746582 65.48657227 C3.27005081 66.69886002 3.26544342 67.91114777 3.26069641 69.16017151 C3 72 3 72 1 74 C0.67 49.58 0.34 25.16 0 0 Z " fill="#050609" transform="translate(180,39)"/>
<path d="M0 0 C0.495 1.485 0.495 1.485 1 3 C-17.48 3 -35.96 3 -55 3 C-55 2.34 -55 1.68 -55 1 C-36.69117634 -0.3855326 -18.34701605 -0.09694789 0 0 Z " fill="#275251" transform="translate(146,234)"/>
<path d="M0 0 C0 0.66 0 1.32 0 2 C-24.67466904 2.80626363 -49.31255411 3.13945285 -74 3 C-74 2.34 -74 1.68 -74 1 C-49.32650054 0.04780501 -24.68983893 -0.1209283 0 0 Z " fill="#05080C" transform="translate(216,166)"/>
<path d="M0 0 C2.78315586 2.70129834 5.30227245 5.37951596 7.6875 8.4375 C13.48020359 15.27259242 22.90156686 20.27909215 31.79638672 21.33056641 C34.86582133 21.51492131 37.92583387 21.62016845 41 21.6875 C42.06089844 21.72166016 43.12179688 21.75582031 44.21484375 21.79101562 C46.80979001 21.87283825 49.40442636 21.94219995 52 22 C52.495 22.99 52.495 22.99 53 24 C22.42450804 25.21494497 22.42450804 25.21494497 9.0078125 13.90234375 C0.66635071 5.99905213 0.66635071 5.99905213 -1 1 C-0.67 0.67 -0.34 0.34 0 0 Z " fill="#05070B" transform="translate(29,144)"/>
<path d="M0 0 C1.82465899 0.11609359 3.65307886 0.17656529 5.48120117 0.20532227 C6.60213669 0.22526749 7.7230722 0.24521271 8.87797546 0.26576233 C10.08742325 0.28247482 11.29687103 0.29918732 12.54296875 0.31640625 C13.78170242 0.33718735 15.0204361 0.35796844 16.29670715 0.37937927 C19.58625256 0.43371797 22.87582726 0.48395951 26.16546631 0.53222656 C29.52377814 0.58250646 32.88200046 0.63815861 36.24023438 0.69335938 C42.82675159 0.80053048 49.41333584 0.90230135 56 1 C56.33 0.34 56.66 -0.32 57 -1 C61.95 1.475 61.95 1.475 67 4 C62.48025568 5.12993608 62.72510244 4.87123346 59 3 C55.99658056 2.69713258 55.99658056 2.69713258 52.64257812 2.74121094 C51.35444214 2.73490662 50.06630615 2.72860229 48.73913574 2.72210693 C47.33650577 2.72568683 45.93387704 2.72978882 44.53125 2.734375 C43.08923273 2.73302722 41.64721591 2.73108575 40.2052002 2.72857666 C37.18574693 2.72563068 34.16641214 2.72990604 31.14697266 2.73925781 C27.27992573 2.75065213 23.41315644 2.74408983 19.54611969 2.73211288 C16.56925369 2.72488003 13.59245332 2.72718875 10.61558533 2.73236847 C9.1898546 2.73370102 7.76411789 2.73207106 6.33839417 2.72740936 C4.34473792 2.722321 2.35106074 2.73145378 0.35742188 2.74121094 C-0.77634888 2.74280212 -1.91011963 2.74439331 -3.07824707 2.74603271 C-5.97380856 2.99772336 -7.49903419 3.62553468 -10 5 C-10.99 5 -11.98 5 -13 5 C-13 4.34 -13 3.68 -13 3 C-11.40084119 2.30093058 -9.79544955 1.61610532 -8.1875 0.9375 C-7.29417969 0.55464844 -6.40085938 0.17179688 -5.48046875 -0.22265625 C-3 -1 -3 -1 0 0 Z " fill="#275552" transform="translate(247,6)"/>
<path d="M0 0 C0.33 0 0.66 0 1 0 C1.1174875 3.33303003 1.18767324 6.66551837 1.25 10 C1.30027344 11.40185547 1.30027344 11.40185547 1.3515625 12.83203125 C1.46378111 20.85566209 -0.34542222 25.96619682 -5.625 32 C-8 34 -8 34 -10 34 C-8.7020332 31.25670722 -7.22118627 28.89236613 -5.453125 26.43359375 C-2.34124384 21.50644858 -2.05103037 16.77811618 -1.75 11.0625 C-1.62310836 9.17815914 -1.49307761 7.29402609 -1.359375 5.41015625 C-1.28928223 4.17471069 -1.28928223 4.17471069 -1.21777344 2.91430664 C-1 1 -1 1 0 0 Z " fill="#05060B" transform="translate(226,245)"/>
<path d="M0 0 C0.99 0.33 1.98 0.66 3 1 C3 8.59 3 16.18 3 24 C2.01 24 1.02 24 0 24 C0 16.08 0 8.16 0 0 Z " fill="#07090E" transform="translate(218,143)"/>
<path d="M0 0 C7.26 0 14.52 0 22 0 C22.33 1.65 22.66 3.3 23 5 C22.34 5.66 21.68 6.32 21 7 C21 5.35 21 3.7 21 2 C13.74 2 6.48 2 -1 2 C-0.67 1.34 -0.34 0.68 0 0 Z " fill="#05070B" transform="translate(160,181)"/>
<path d="M0 0 C0 0.66 0 1.32 0 2 C-6.6 2 -13.2 2 -20 2 C-19 0 -19 0 -17.4375 -0.625 C-11.52133466 -1.53517928 -5.85281873 -0.97546979 0 0 Z " fill="#040509" transform="translate(250,244)"/>
<path d="M0 0 C0.33 0 0.66 0 1 0 C1.33 7.26 1.66 14.52 2 22 C1.01 22 0.02 22 -1 22 C-1.02887814 18.52085059 -1.04675687 15.04173169 -1.0625 11.5625 C-1.07087891 10.56927734 -1.07925781 9.57605469 -1.08789062 8.55273438 C-1.09111328 7.60849609 -1.09433594 6.66425781 -1.09765625 5.69140625 C-1.10289307 4.81685791 -1.10812988 3.94230957 -1.11352539 3.04125977 C-1 1 -1 1 0 0 Z " fill="#295552" transform="translate(196,77)"/>
<path d="M0 0 C0.66 0.33 1.32 0.66 2 1 C2 6.94 2 12.88 2 19 C1.34 19.33 0.68 19.66 0 20 C-1.19799449 15.85340627 -0.8896192 12.00630953 -0.5625 7.75 C-0.51029297 7.00492187 -0.45808594 6.25984375 -0.40429688 5.4921875 C-0.2751783 3.66105139 -0.13834886 1.83046187 0 0 Z " fill="#285250" transform="translate(92,249)"/>
<path d="M0 0 C3.74086417 1.24695472 5.25795253 3.19266568 8 6 C9.64864545 7.35555293 11.31003995 8.69631653 13 10 C11.2265625 10.6640625 11.2265625 10.6640625 9 11 C5.2271497 8.88274646 2.48397951 5.96795902 0.5625 2.125 C0.376875 1.42375 0.19125 0.7225 0 0 Z " fill="#050609" transform="translate(49,131)"/>
<path d="M0 0 C3.3 0.33 6.6 0.66 10 1 C9.67 1.66 9.34 2.32 9 3 C6.03 3 3.06 3 0 3 C0 2.01 0 1.02 0 0 Z " fill="#245854" transform="translate(68,281)"/>
<path d="M0 0 C-0.33 0.99 -0.66 1.98 -1 3 C-3.97 3 -6.94 3 -10 3 C-10 2.34 -10 1.68 -10 1 C-6.59437148 0.22157062 -3.49234244 -0.09978121 0 0 Z " fill="#04060A" transform="translate(210,280)"/>
</svg>
